<?xml version="1.0" encoding="UTF-8" standalone="no"?>
<svg
   xmlns:dc="http://purl.org/dc/elements/1.1/"
   xmlns:cc="http://creativecommons.org/ns#"
   xmlns:rdf="http://www.w3.org/1999/02/22-rdf-syntax-ns#"
   xmlns:svg="http://www.w3.org/2000/svg"
   xmlns="http://www.w3.org/2000/svg"
   xmlns:sodipodi="http://sodipodi.sourceforge.net/DTD/sodipodi-0.dtd"
   xmlns:inkscape="http://www.inkscape.org/namespaces/inkscape"
   version="1.1"
   id="svg833"
   width="75.000008"
   height="75"
   viewBox="0 0 75.000008 75"
   sodipodi:docname="Logo.svg"
   inkscape:version="1.0 (4035a4fb49, 2020-05-01)"
   inkscape:export-filename="D:\Github\Pampa\docs\assets\logos\logo@1024px.png"
   inkscape:export-xdpi="1310.72"
   inkscape:export-ydpi="1310.72">
  <metadata
     id="metadata839">
    <rdf:RDF>
      <cc:Work
         rdf:about="">
        <dc:format>image/svg+xml</dc:format>
        <dc:type
           rdf:resource="http://purl.org/dc/dcmitype/StillImage" />
        <dc:title />
      </cc:Work>
    </rdf:RDF>
  </metadata>
  <defs
     id="defs837" />
  <sodipodi:namedview
     inkscape:document-rotation="0"
     pagecolor="#ffffff"
     bordercolor="#666666"
     borderopacity="1"
     objecttolerance="10"
     gridtolerance="10"
     guidetolerance="10"
     inkscape:pageopacity="0"
     inkscape:pageshadow="2"
     inkscape:window-width="1147"
     inkscape:window-height="775"
     id="namedview835"
     showgrid="false"
     inkscape:zoom="6.640625"
     inkscape:cx="37.1584"
     inkscape:cy="37.308981"
     inkscape:window-x="336"
     inkscape:window-y="374"
     inkscape:window-maximized="0"
     inkscape:current-layer="g841"
     fit-margin-top="0"
     fit-margin-left="0"
     fit-margin-right="0"
     fit-margin-bottom="0" />
  <g
     inkscape:groupmode="layer"
     inkscape:label="Image"
     id="g841"
     transform="translate(5.1583999,5.3089813)">
    <path
       style="fill:#000000;stroke-width:0.5"
       d="m 17.015081,62.633727 -1.50562,-1.50562 1.166071,-2.303285 c 1.182018,-2.334785 1.405085,-3.94019 0.840467,-6.048805 -0.29815,-1.113465 -0.430217,-1.0482 -2.985784,1.475625 l -2.673837,2.64062 -1.507388,-1.444165 c -0.8290641,-0.794295 -1.5073881,-1.67625 -1.5073881,-1.959905 0,-0.28365 1.1449559,-1.675085 2.5443481,-3.09208 l 2.544347,-2.57635 -1.618959,-0.564373 C 9.8954599,46.41321 8.2642329,46.562854 5.6979219,47.862087 L 3.3847639,49.033156 1.7958269,47.39379 0.20689089,45.754424 2.5891829,44.243619 c 3.834938,-2.432046 9.4850111,-2.694174 13.0269651,-0.604371 l 1.598707,0.943261 6.063519,-6.078108 6.06351,-6.078108 -6.18105,-6.166208 -6.181046,-6.166207 -1.560476,0.806953 C 11.700983,22.823655 6.3190719,22.50384 2.5891829,20.138415 L 0.20689089,18.62761 1.7958269,16.988244 l 1.588937,-1.639366 2.313158,1.171069 c 2.518386,1.274969 4.3255761,1.457362 6.4472671,0.650696 l 1.368686,-0.520374 -2.446896,-2.484251 -2.4468961,-2.484251 1.6061341,-1.606134 1.606135,-1.6061341 2.484251,2.4468951 2.484251,2.446896 0.520374,-1.368686 C 18.127894,9.872913 17.945501,8.0657239 16.670532,5.5473379 L 15.499463,3.2341799 17.138829,1.6452437 18.778195,0.05630733 20.289,2.4385993 c 2.365424,3.7298886 2.685244,9.1117987 0.762414,12.8301277 l -0.806951,1.560476 6.166211,6.181048 6.1662,6.181049 6.07811,-6.063515 6.07811,-6.063515 -0.94326,-1.598707 c -2.0898,-3.541954 -1.82768,-9.1920256 0.60437,-13.0269637 l 1.5108,-2.38229197 1.63937,1.58893627 1.63937,1.5889363 -1.17107,2.313158 c -1.29924,2.5663115 -1.44888,4.1975386 -0.6067,6.6134151 l 0.56437,1.618959 2.57635,-2.544347 c 1.417,-1.399391 2.80843,-2.5443475 3.09208,-2.5443475 0.28366,0 1.16561,0.678325 1.95991,1.5073875 l 1.44416,1.507388 -2.64062,2.673837 c -2.52382,2.555567 -2.58909,2.687634 -1.47562,2.985784 2.1104,0.565096 3.71466,0.341228 6.05868,-0.845466 l 2.31316,-1.17107 1.57714,1.627203 1.57715,1.627204 -1.97145,1.304645 c -3.64199,2.410153 -7.73128,2.919141 -11.94882,1.48725 l -2.34409,-0.795838 -6.04578,6.045783 -6.04578,6.045783 5.80022,5.800218 5.80021,5.800219 1.56356,-0.808548 c 3.72141,-1.924414 9.10204,-1.605421 12.83322,0.760822 l 2.38229,1.510805 -1.58894,1.639366 -1.58893,1.639366 -2.31316,-1.171069 c -2.51914,-1.275349 -4.32557,-1.457366 -6.44949,-0.649853 l -1.3709,0.521216 2.9507,2.981817 2.95071,2.98182 -1.60932,1.609315 -1.60931,1.609315 -2.98182,-2.950705 -2.98182,-2.9507 -0.52122,1.3709 c -0.80751,2.12392 -0.62549,3.93035 0.64986,6.449485 l 1.17107,2.31316 -1.63937,1.588935 -1.63937,1.588935 -1.5108,-2.38229 c -2.36624,-3.73118 -2.68524,-9.11181 -0.76082,-12.833213 l 0.80855,-1.56356 -5.80022,-5.800218 -5.80022,-5.800219 -6.03778,6.037779 -6.03778,6.037779 0.8547,2.613082 c 1.15155,3.52067 0.75961,7.799165 -0.987569,10.780505 -0.71683,1.22318 -1.485362,2.336465 -1.707847,2.473965 -0.222485,0.137505 -1.082047,-0.42752 -1.910137,-1.25561 z m 11.659853,-6.276045 c -0.62551,-0.625515 -0.3343,-1.58879 0.93711,-3.09977 1.2569,-1.49374 1.25956,-1.515655 0.25,-2.055955 -0.56124,-0.30037 -1.02044,-0.875705 -1.02044,-1.278532 0,-1.085892 2.01227,-0.895192 3.29783,0.312532 l 1.11229,1.04494 1.04494,-1.04494 c 0.57472,-0.574718 1.26994,-1.04494 1.54494,-1.04494 0.88485,0 0.53233,2.46767 -0.5,3.5 -0.55,0.55 -1,1.170875 -1,1.379725 0,0.20885 0.45,0.66076 1,1.00424 0.55,0.34348 1,0.8476 1,1.12027 0,0.898085 -2.82464,0.518275 -3.75,-0.504235 -1.0567,-1.16764 -1.75,-1.287875 -1.75,-0.303495 0,0.38308 -0.3559,0.83308 -0.7909,1 -0.97929,0.37579 -0.96994,0.375995 -1.37577,-0.02985 z M 7.8416019,34.768511 c 0,-0.787511 0.446392,-1.826486 1,-2.327494 1.1676401,-1.0567 1.2878761,-1.75 0.303494,-1.75 -0.781603,0 -1.457092,-1.346964 -1.025608,-2.045121 0.485738,-0.785941 1.59167,-0.50008 3.1552201,0.81556 1.493741,1.2569 1.515653,1.259564 2.055955,0.25 0.300368,-0.561241 0.875706,-1.020439 1.278531,-1.020439 1.107486,0 0.897182,2.307535 -0.313064,3.43505 l -1.045473,0.974005 1.045473,1.045473 c 0.57501,0.57501 1.045472,1.270472 1.045472,1.545472 0,0.903201 -2.477675,0.522325 -3.544939,-0.544939 l -1.044939,-1.044939 -1.1122871,1.044939 c -1.476316,1.386927 -1.797835,1.319404 -1.797835,-0.377567 z m 41.3426321,0.374734 c -0.158,-0.604205 0.2322,-1.55865 1.01995,-2.494843 l 1.27586,-1.516268 -1.06922,-0.74891 c -0.58807,-0.411901 -1.06922,-1.073653 -1.06922,-1.470559 0,-1.094793 2.34028,-0.881364 3.54494,0.323291 l 1.04494,1.044939 1.11228,-1.044939 c 0.61176,-0.574717 1.26654,-1.044939 1.45506,-1.044939 0.7892,0 0.25976,2.773914 -0.73066,3.828165 l -1.07343,1.142617 1.15299,0.933633 c 1.21782,0.986131 1.01491,2.095585 -0.38327,2.095585 -0.44997,0 -1.42907,-0.585313 -2.17577,-1.300697 -1.32204,-1.266593 -1.37155,-1.27469 -1.88847,-0.308825 -0.76901,1.436909 -1.91139,1.726502 -2.21598,0.56175 z M 33.591604,15.087109 c -0.55,-0.315425 -1.27012,-0.927333 -1.60026,-1.359796 -0.5336,-0.698988 -0.68943,-0.661379 -1.40335,0.338704 -0.4417,0.61875 -1.12784,1.125 -1.52474,1.125 -1.09502,0 -0.88126,-2.34039 0.32382,-3.545472 l 1.04547,-1.045473 -1.04547,-0.9740035 c -0.57501,-0.535703 -1.04547,-1.1902406 -1.04547,-1.4545281 0,-0.899686 2.68144,-0.4843815 3.82816,0.5929101 l 1.14262,1.0734325 0.93363,-1.1529865 c 0.94785,-1.1705421 2.09559,-1.0293751 2.09559,0.257748 0,0.380935 -0.53931,1.3195955 -1.19847,2.0859125 l -1.19847,1.393304 1.27574,1.182314 c 1.03143,0.955897 1.14125,1.267459 0.57347,1.626922 -0.88434,0.559874 -0.98662,0.553186 -2.20227,-0.143988 z"
       id="path845" />
    <ellipse
       style="fill:none;stroke:#000000;stroke-width:3.83907;stroke-linecap:round;stroke-linejoin:round;stroke-miterlimit:4;stroke-dasharray:none;stroke-opacity:1;paint-order:markers fill stroke"
       id="path847"
       cx="32.341602"
       cy="32.191017"
       rx="35.580467"
       ry="35.580463" />
  </g>
</svg>
